<svg xmlns="http://www.w3.org/2000/svg" width="418" height="96" viewBox="0 0 418 96" role="img" aria-label="Sonnenwerk — Geprüfte Solar-Angebote aus Ihrer Region">
  
  <g transform="translate(10,20)">
    <line x1="2" y1="52" x2="66" y2="52" stroke="#1F4A38" stroke-width="4" stroke-linecap="round"/>
    <path d="M14 52 A20 20 0 0 1 54 52 Z" fill="#1F4A38"/>
    <g stroke="#1F4A38" stroke-width="4" stroke-linecap="round">
      <line x1="34" y1="6" x2="34" y2="16"/>
      <line x1="12" y1="14" x2="17" y2="22"/>
      <line x1="56" y1="14" x2="51" y2="22"/>
    </g>
  </g>
  <g transform="translate(92,46)" fill="#1F4A38"><path transform="translate(0.00,0) scale(0.01465,-0.01465)" d="M681 -22Q502 -22 369.5 33.0Q237 88 163.0 196.0Q89 304 85 462H382Q388 387 427.0 336.5Q466 286 531.0 261.0Q596 236 678 236Q760 236 820.5 259.5Q881 283 915.0 326.0Q949 369 949 426Q949 477 918.5 511.5Q888 546 831.0 571.0Q774 596 692 615L528 656Q339 702 232.0 800.5Q125 899 125 1061Q125 1196 197.5 1297.0Q270 1398 396.5 1454.0Q523 1510 685 1510Q850 1510 973.0 1453.5Q1096 1397 1165.0 1296.5Q1234 1196 1236 1065H941Q933 1155 864.5 1204.0Q796 1253 682 1253Q605 1253 550.0 1231.0Q495 1209 466.5 1170.0Q438 1131 438 1081Q438 1026 471.0 989.5Q504 953 559.0 930.5Q614 908 676 893L811 860Q905 839 986.0 803.0Q1067 767 1128.0 714.5Q1189 662 1222.5 590.0Q1256 518 1256 424Q1256 289 1188.0 188.5Q1120 88 991.0 33.0Q862 -22 681 -22Z"/><path transform="translate(18.64,0) scale(0.01465,-0.01465)" d="M628 -22Q460 -22 337.0 50.5Q214 123 147.5 252.5Q81 382 81 554Q81 728 147.5 857.5Q214 987 337.0 1059.5Q460 1132 628 1132Q797 1132 919.5 1059.5Q1042 987 1108.5 857.5Q1175 728 1175 554Q1175 382 1108.5 252.5Q1042 123 919.5 50.5Q797 -22 628 -22ZM628 214Q708 214 762.0 258.5Q816 303 843.0 380.5Q870 458 870 555Q870 654 843.0 731.0Q816 808 762.0 852.0Q708 896 628 896Q548 896 494.5 852.0Q441 808 414.0 731.0Q387 654 387 555Q387 458 414.0 380.5Q441 303 494.5 258.5Q548 214 628 214Z"/><path transform="translate(36.04,0) scale(0.01465,-0.01465)" d="M428 647V0H128V1118H411L416 839H398Q442 979 531.5 1055.5Q621 1132 763 1132Q879 1132 965.5 1081.5Q1052 1031 1099.5 936.5Q1147 842 1147 711V0H847V659Q847 763 793.5 822.0Q740 881 645 881Q582 881 532.5 853.5Q483 826 455.5 774.0Q428 722 428 647Z"/><path transform="translate(53.72,0) scale(0.01465,-0.01465)" d="M428 647V0H128V1118H411L416 839H398Q442 979 531.5 1055.5Q621 1132 763 1132Q879 1132 965.5 1081.5Q1052 1031 1099.5 936.5Q1147 842 1147 711V0H847V659Q847 763 793.5 822.0Q740 881 645 881Q582 881 532.5 853.5Q483 826 455.5 774.0Q428 722 428 647Z"/><path transform="translate(71.40,0) scale(0.01465,-0.01465)" d="M633 -22Q462 -22 338.0 48.0Q214 118 147.5 247.0Q81 376 81 553Q81 726 147.0 856.0Q213 986 334.0 1059.0Q455 1132 618 1132Q728 1132 823.0 1097.0Q918 1062 990.0 991.5Q1062 921 1102.5 815.0Q1143 709 1143 565V481H204V669H996L856 619Q856 706 829.5 770.5Q803 835 750.5 870.5Q698 906 621 906Q543 906 488.5 870.0Q434 834 406.0 772.5Q378 711 378 632V499Q378 402 410.5 336.0Q443 270 501.5 237.0Q560 204 638 204Q691 204 734.0 219.0Q777 234 807.5 263.5Q838 293 854 336L1126 285Q1099 193 1032.0 123.5Q965 54 864.5 16.0Q764 -22 633 -22Z"/><path transform="translate(88.27,0) scale(0.01465,-0.01465)" d="M428 647V0H128V1118H411L416 839H398Q442 979 531.5 1055.5Q621 1132 763 1132Q879 1132 965.5 1081.5Q1052 1031 1099.5 936.5Q1147 842 1147 711V0H847V659Q847 763 793.5 822.0Q740 881 645 881Q582 881 532.5 853.5Q483 826 455.5 774.0Q428 722 428 647Z"/><path transform="translate(105.94,0) scale(0.01465,-0.01465)" d="M361 0 31 1118H346L443 705Q468 594 497.0 463.5Q526 333 550 175H516Q542 329 573.0 460.5Q604 592 631 705L733 1118H1009L1109 705Q1134 592 1165.0 461.5Q1196 331 1223 175H1189Q1213 330 1240.5 460.5Q1268 591 1294 705L1391 1118H1710L1378 0H1073L949 431Q931 496 913.0 574.5Q895 653 878.0 734.5Q861 816 843 887H896Q879 816 861.5 734.5Q844 653 826.0 574.0Q808 495 790 431L666 0Z"/><path transform="translate(130.45,0) scale(0.01465,-0.01465)" d="M633 -22Q462 -22 338.0 48.0Q214 118 147.5 247.0Q81 376 81 553Q81 726 147.0 856.0Q213 986 334.0 1059.0Q455 1132 618 1132Q728 1132 823.0 1097.0Q918 1062 990.0 991.5Q1062 921 1102.5 815.0Q1143 709 1143 565V481H204V669H996L856 619Q856 706 829.5 770.5Q803 835 750.5 870.5Q698 906 621 906Q543 906 488.5 870.0Q434 834 406.0 772.5Q378 711 378 632V499Q378 402 410.5 336.0Q443 270 501.5 237.0Q560 204 638 204Q691 204 734.0 219.0Q777 234 807.5 263.5Q838 293 854 336L1126 285Q1099 193 1032.0 123.5Q965 54 864.5 16.0Q764 -22 633 -22Z"/><path transform="translate(147.32,0) scale(0.01465,-0.01465)" d="M128 0V1118H418V923H430Q461 1027 533.5 1080.0Q606 1133 700 1133Q723 1133 750.0 1130.5Q777 1128 797 1123V855Q777 862 739.0 866.0Q701 870 667 870Q599 870 544.0 840.5Q489 811 458.5 758.5Q428 706 428 636V0Z"/><path transform="translate(158.53,0) scale(0.01465,-0.01465)" d="M400 327V688H445L811 1118H1158L675 557H604ZM128 0V1490H428V0ZM826 0 490 490 691 703 1179 0Z"/></g>
  <g transform="translate(93,66)" fill="#1F4A38"><path transform="translate(0.00,0) scale(0.00513,-0.00513)" d="M793 -20Q587 -20 432.0 73.0Q277 166 190.0 337.0Q103 508 103 743Q103 984 192.5 1155.5Q282 1327 436.0 1418.5Q590 1510 785 1510Q908 1510 1014.5 1474.0Q1121 1438 1204.5 1371.5Q1288 1305 1341.5 1214.0Q1395 1123 1412 1014H1139Q1121 1074 1089.5 1121.0Q1058 1168 1013.5 1202.0Q969 1236 912.5 1253.5Q856 1271 788 1271Q668 1271 573.5 1210.0Q479 1149 425.0 1032.0Q371 915 371 745Q371 577 425.0 459.5Q479 342 574.0 280.5Q669 219 794 219Q908 219 991.5 263.0Q1075 307 1120.5 388.0Q1166 469 1166 579L1227 569H822V779H1425V600Q1425 409 1343.5 269.5Q1262 130 1119.5 55.0Q977 -20 793 -20Z"/><path transform="translate(9.26,0) scale(0.00513,-0.00513)" d="M150 0V1490H1118V1265H417V863H1066V641H417V225H1122V0Z"/><path transform="translate(17.02,0) scale(0.00513,-0.00513)" d="M150 0V1490H707Q878 1490 995.0 1426.0Q1112 1362 1172.0 1250.5Q1232 1139 1232 997Q1232 854 1171.5 743.0Q1111 632 993.0 568.0Q875 504 703 504H334V724H668Q769 724 833.5 759.0Q898 794 928.5 856.0Q959 918 959 997Q959 1076 928.5 1137.0Q898 1198 833.0 1232.0Q768 1266 666 1266H417V0Z"/><path transform="translate(25.19,0) scale(0.00513,-0.00513)" d="M150 0V1490H707Q878 1490 995.0 1430.0Q1112 1370 1172.0 1262.5Q1232 1155 1232 1013Q1232 871 1171.5 766.0Q1111 661 993.0 604.0Q875 547 703 547H305V768H668Q769 768 833.0 796.5Q897 825 928.0 880.0Q959 935 959 1013Q959 1093 928.0 1149.5Q897 1206 832.5 1236.0Q768 1266 666 1266H417V0ZM988 0 626 676H918L1287 0Z"/><path transform="translate(33.44,0) scale(0.00513,-0.00513)" d="M754 -22Q572 -22 436.0 46.5Q300 115 225.0 236.5Q150 358 150 517V1490H417V539Q417 446 458.5 373.0Q500 300 575.5 258.5Q651 217 754 217Q857 217 932.5 258.5Q1008 300 1049.5 373.0Q1091 446 1091 539V1490H1358V517Q1358 358 1282.5 236.5Q1207 115 1071.5 46.5Q936 -22 754 -22ZM972 1654Q914 1654 873.0 1694.0Q832 1734 832 1791Q832 1847 873.0 1887.0Q914 1927 972 1927Q1029 1927 1070.0 1887.0Q1111 1847 1111 1791Q1111 1734 1070.0 1694.0Q1029 1654 972 1654ZM536 1654Q478 1654 437.5 1694.0Q397 1734 397 1791Q397 1847 437.5 1887.0Q478 1927 536 1927Q594 1927 634.5 1887.0Q675 1847 675 1791Q675 1734 634.5 1694.0Q594 1654 536 1654Z"/><path transform="translate(42.57,0) scale(0.00513,-0.00513)" d="M150 0V1490H1104V1265H417V818H1037V596H417V0Z"/><path transform="translate(50.14,0) scale(0.00513,-0.00513)" d="M83 1265V1490H1269V1265H810V0H543V1265Z"/><path transform="translate(58.48,0) scale(0.00513,-0.00513)" d="M150 0V1490H1118V1265H417V863H1066V641H417V225H1122V0Z"/><path transform="translate(70.28,0) scale(0.00513,-0.00513)" d="M673 -23Q500 -23 372.5 31.0Q245 85 173.0 188.0Q101 291 95 438H358Q365 360 407.0 308.0Q449 256 518.0 230.5Q587 205 671 205Q759 205 826.5 232.0Q894 259 932.0 307.5Q970 356 970 420Q970 478 936.5 516.0Q903 554 842.5 580.5Q782 607 701 627L532 671Q345 719 240.5 816.0Q136 913 136 1071Q136 1203 207.0 1302.0Q278 1401 401.0 1455.5Q524 1510 680 1510Q839 1510 959.0 1455.0Q1079 1400 1146.5 1303.0Q1214 1206 1217 1082H958Q948 1178 872.5 1230.5Q797 1283 676 1283Q592 1283 531.5 1257.5Q471 1232 438.5 1188.0Q406 1144 406 1087Q406 1025 444.5 985.0Q483 945 541.5 921.0Q600 897 660 882L799 846Q882 826 960.0 793.0Q1038 760 1100.5 709.5Q1163 659 1200.0 587.0Q1237 515 1237 418Q1237 287 1170.0 187.5Q1103 88 977.0 32.5Q851 -23 673 -23Z"/><path transform="translate(78.51,0) scale(0.00513,-0.00513)" d="M788 -20Q592 -20 437.0 71.0Q282 162 192.5 333.0Q103 504 103 744Q103 985 192.5 1156.5Q282 1328 437.0 1419.0Q592 1510 788 1510Q983 1510 1137.5 1419.0Q1292 1328 1381.5 1156.5Q1471 985 1471 744Q1471 504 1381.5 332.5Q1292 161 1137.5 70.5Q983 -20 788 -20ZM788 219Q909 219 1002.5 279.5Q1096 340 1149.0 457.5Q1202 575 1202 744Q1202 915 1149.0 1032.5Q1096 1150 1002.5 1210.5Q909 1271 788 1271Q666 1271 572.0 1210.0Q478 1149 424.5 1031.5Q371 914 371 744Q371 575 424.5 458.0Q478 341 572.0 280.0Q666 219 788 219Z"/><path transform="translate(87.98,0) scale(0.00513,-0.00513)" d="M150 0V1490H417V225H1075V0Z"/><path transform="translate(95.31,0) scale(0.00513,-0.00513)" d="M50 0 570 1490H909L1441 0H1148L883 774Q844 894 802.0 1045.5Q760 1197 709 1390H765Q715 1195 674.5 1042.5Q634 890 598 774L342 0ZM353 369V584H1138V369Z"/><path transform="translate(104.35,0) scale(0.00513,-0.00513)" d="M150 0V1490H707Q878 1490 995.0 1430.0Q1112 1370 1172.0 1262.5Q1232 1155 1232 1013Q1232 871 1171.5 766.0Q1111 661 993.0 604.0Q875 547 703 547H305V768H668Q769 768 833.0 796.5Q897 825 928.0 880.0Q959 935 959 1013Q959 1093 928.0 1149.5Q897 1206 832.5 1236.0Q768 1266 666 1266H417V0ZM988 0 626 676H918L1287 0Z"/><path transform="translate(112.60,0) scale(0.00513,-0.00513)" d="M811 728V513H141V728Z"/><path transform="translate(118.89,0) scale(0.00513,-0.00513)" d="M50 0 570 1490H909L1441 0H1148L883 774Q844 894 802.0 1045.5Q760 1197 709 1390H765Q715 1195 674.5 1042.5Q634 890 598 774L342 0ZM353 369V584H1138V369Z"/><path transform="translate(127.93,0) scale(0.00513,-0.00513)" d="M150 0V1490H452L967 669Q999 618 1035.0 553.5Q1071 489 1110.0 409.5Q1149 330 1187 233H1157Q1150 317 1144.5 405.5Q1139 494 1136.5 573.5Q1134 653 1134 708V1490H1405V0H1102L637 739Q593 810 554.0 879.0Q515 948 470.0 1035.0Q425 1122 361 1245H399Q405 1136 410.0 1038.5Q415 941 418.5 864.0Q422 787 422 740V0Z"/><path transform="translate(137.30,0) scale(0.00513,-0.00513)" d="M793 -20Q587 -20 432.0 73.0Q277 166 190.0 337.0Q103 508 103 743Q103 984 192.5 1155.5Q282 1327 436.0 1418.5Q590 1510 785 1510Q908 1510 1014.5 1474.0Q1121 1438 1204.5 1371.5Q1288 1305 1341.5 1214.0Q1395 1123 1412 1014H1139Q1121 1074 1089.5 1121.0Q1058 1168 1013.5 1202.0Q969 1236 912.5 1253.5Q856 1271 788 1271Q668 1271 573.5 1210.0Q479 1149 425.0 1032.0Q371 915 371 745Q371 577 425.0 459.5Q479 342 574.0 280.5Q669 219 794 219Q908 219 991.5 263.0Q1075 307 1120.5 388.0Q1166 469 1166 579L1227 569H822V779H1425V600Q1425 409 1343.5 269.5Q1262 130 1119.5 55.0Q977 -20 793 -20Z"/><path transform="translate(146.57,0) scale(0.00513,-0.00513)" d="M150 0V1490H1118V1265H417V863H1066V641H417V225H1122V0Z"/><path transform="translate(154.32,0) scale(0.00513,-0.00513)" d="M150 0V1490H720Q881 1490 988.0 1439.0Q1095 1388 1148.0 1301.0Q1201 1214 1201 1103Q1201 1012 1166.0 947.5Q1131 883 1072.5 843.0Q1014 803 941 786V771Q1020 767 1093.0 723.0Q1166 679 1212.5 599.0Q1259 519 1259 406Q1259 290 1203.0 198.0Q1147 106 1034.5 53.0Q922 0 751 0ZM417 223H709Q857 223 922.5 280.0Q988 337 988 426Q988 493 955.0 546.5Q922 600 861.5 631.0Q801 662 718 662H417ZM417 855H686Q757 855 813.0 881.0Q869 907 901.5 955.0Q934 1003 934 1069Q934 1156 873.0 1212.0Q812 1268 692 1268H417Z"/><path transform="translate(162.64,0) scale(0.00513,-0.00513)" d="M788 -20Q592 -20 437.0 71.0Q282 162 192.5 333.0Q103 504 103 744Q103 985 192.5 1156.5Q282 1328 437.0 1419.0Q592 1510 788 1510Q983 1510 1137.5 1419.0Q1292 1328 1381.5 1156.5Q1471 985 1471 744Q1471 504 1381.5 332.5Q1292 161 1137.5 70.5Q983 -20 788 -20ZM788 219Q909 219 1002.5 279.5Q1096 340 1149.0 457.5Q1202 575 1202 744Q1202 915 1149.0 1032.5Q1096 1150 1002.5 1210.5Q909 1271 788 1271Q666 1271 572.0 1210.0Q478 1149 424.5 1031.5Q371 914 371 744Q371 575 424.5 458.0Q478 341 572.0 280.0Q666 219 788 219Z"/><path transform="translate(172.11,0) scale(0.00513,-0.00513)" d="M83 1265V1490H1269V1265H810V0H543V1265Z"/><path transform="translate(180.45,0) scale(0.00513,-0.00513)" d="M150 0V1490H1118V1265H417V863H1066V641H417V225H1122V0Z"/><path transform="translate(192.25,0) scale(0.00513,-0.00513)" d="M50 0 570 1490H909L1441 0H1148L883 774Q844 894 802.0 1045.5Q760 1197 709 1390H765Q715 1195 674.5 1042.5Q634 890 598 774L342 0ZM353 369V584H1138V369Z"/><path transform="translate(201.29,0) scale(0.00513,-0.00513)" d="M754 -22Q572 -22 436.0 46.5Q300 115 225.0 236.5Q150 358 150 517V1490H417V539Q417 446 458.5 373.0Q500 300 575.5 258.5Q651 217 754 217Q857 217 932.5 258.5Q1008 300 1049.5 373.0Q1091 446 1091 539V1490H1358V517Q1358 358 1282.5 236.5Q1207 115 1071.5 46.5Q936 -22 754 -22Z"/><path transform="translate(210.41,0) scale(0.00513,-0.00513)" d="M673 -23Q500 -23 372.5 31.0Q245 85 173.0 188.0Q101 291 95 438H358Q365 360 407.0 308.0Q449 256 518.0 230.5Q587 205 671 205Q759 205 826.5 232.0Q894 259 932.0 307.5Q970 356 970 420Q970 478 936.5 516.0Q903 554 842.5 580.5Q782 607 701 627L532 671Q345 719 240.5 816.0Q136 913 136 1071Q136 1203 207.0 1302.0Q278 1401 401.0 1455.5Q524 1510 680 1510Q839 1510 959.0 1455.0Q1079 1400 1146.5 1303.0Q1214 1206 1217 1082H958Q948 1178 872.5 1230.5Q797 1283 676 1283Q592 1283 531.5 1257.5Q471 1232 438.5 1188.0Q406 1144 406 1087Q406 1025 444.5 985.0Q483 945 541.5 921.0Q600 897 660 882L799 846Q882 826 960.0 793.0Q1038 760 1100.5 709.5Q1163 659 1200.0 587.0Q1237 515 1237 418Q1237 287 1170.0 187.5Q1103 88 977.0 32.5Q851 -23 673 -23Z"/><path transform="translate(222.69,0) scale(0.00513,-0.00513)" d="M417 1490V0H150V1490Z"/><path transform="translate(227.00,0) scale(0.00513,-0.00513)" d="M150 0V1490H417V874H1110V1490H1377V0H1110V649H417V0Z"/><path transform="translate(236.22,0) scale(0.00513,-0.00513)" d="M150 0V1490H707Q878 1490 995.0 1430.0Q1112 1370 1172.0 1262.5Q1232 1155 1232 1013Q1232 871 1171.5 766.0Q1111 661 993.0 604.0Q875 547 703 547H305V768H668Q769 768 833.0 796.5Q897 825 928.0 880.0Q959 935 959 1013Q959 1093 928.0 1149.5Q897 1206 832.5 1236.0Q768 1266 666 1266H417V0ZM988 0 626 676H918L1287 0Z"/><path transform="translate(244.47,0) scale(0.00513,-0.00513)" d="M150 0V1490H1118V1265H417V863H1066V641H417V225H1122V0Z"/><path transform="translate(252.23,0) scale(0.00513,-0.00513)" d="M150 0V1490H707Q878 1490 995.0 1430.0Q1112 1370 1172.0 1262.5Q1232 1155 1232 1013Q1232 871 1171.5 766.0Q1111 661 993.0 604.0Q875 547 703 547H305V768H668Q769 768 833.0 796.5Q897 825 928.0 880.0Q959 935 959 1013Q959 1093 928.0 1149.5Q897 1206 832.5 1236.0Q768 1266 666 1266H417V0ZM988 0 626 676H918L1287 0Z"/><path transform="translate(264.53,0) scale(0.00513,-0.00513)" d="M150 0V1490H707Q878 1490 995.0 1430.0Q1112 1370 1172.0 1262.5Q1232 1155 1232 1013Q1232 871 1171.5 766.0Q1111 661 993.0 604.0Q875 547 703 547H305V768H668Q769 768 833.0 796.5Q897 825 928.0 880.0Q959 935 959 1013Q959 1093 928.0 1149.5Q897 1206 832.5 1236.0Q768 1266 666 1266H417V0ZM988 0 626 676H918L1287 0Z"/><path transform="translate(272.78,0) scale(0.00513,-0.00513)" d="M150 0V1490H1118V1265H417V863H1066V641H417V225H1122V0Z"/><path transform="translate(280.53,0) scale(0.00513,-0.00513)" d="M793 -20Q587 -20 432.0 73.0Q277 166 190.0 337.0Q103 508 103 743Q103 984 192.5 1155.5Q282 1327 436.0 1418.5Q590 1510 785 1510Q908 1510 1014.5 1474.0Q1121 1438 1204.5 1371.5Q1288 1305 1341.5 1214.0Q1395 1123 1412 1014H1139Q1121 1074 1089.5 1121.0Q1058 1168 1013.5 1202.0Q969 1236 912.5 1253.5Q856 1271 788 1271Q668 1271 573.5 1210.0Q479 1149 425.0 1032.0Q371 915 371 745Q371 577 425.0 459.5Q479 342 574.0 280.5Q669 219 794 219Q908 219 991.5 263.0Q1075 307 1120.5 388.0Q1166 469 1166 579L1227 569H822V779H1425V600Q1425 409 1343.5 269.5Q1262 130 1119.5 55.0Q977 -20 793 -20Z"/><path transform="translate(289.80,0) scale(0.00513,-0.00513)" d="M417 1490V0H150V1490Z"/><path transform="translate(294.11,0) scale(0.00513,-0.00513)" d="M788 -20Q592 -20 437.0 71.0Q282 162 192.5 333.0Q103 504 103 744Q103 985 192.5 1156.5Q282 1328 437.0 1419.0Q592 1510 788 1510Q983 1510 1137.5 1419.0Q1292 1328 1381.5 1156.5Q1471 985 1471 744Q1471 504 1381.5 332.5Q1292 161 1137.5 70.5Q983 -20 788 -20ZM788 219Q909 219 1002.5 279.5Q1096 340 1149.0 457.5Q1202 575 1202 744Q1202 915 1149.0 1032.5Q1096 1150 1002.5 1210.5Q909 1271 788 1271Q666 1271 572.0 1210.0Q478 1149 424.5 1031.5Q371 914 371 744Q371 575 424.5 458.0Q478 341 572.0 280.0Q666 219 788 219Z"/><path transform="translate(303.58,0) scale(0.00513,-0.00513)" d="M150 0V1490H452L967 669Q999 618 1035.0 553.5Q1071 489 1110.0 409.5Q1149 330 1187 233H1157Q1150 317 1144.5 405.5Q1139 494 1136.5 573.5Q1134 653 1134 708V1490H1405V0H1102L637 739Q593 810 554.0 879.0Q515 948 470.0 1035.0Q425 1122 361 1245H399Q405 1136 410.0 1038.5Q415 941 418.5 864.0Q422 787 422 740V0Z"/></g>
</svg>